# xmcd
#
# Track frame offsets:
#	150
#	15994
#	32276
#	50480
#	69756
#	84777
#	107340
#	123042
#	139895
#	158094
#	172695
#	193763
#	215435
#	231743
#	250839
#	266508
#	284303
#	296013
#	312462
#	330394
#
# Disc length: 4783
#
# Revision: 1
# Processed by: cddbd v1.5.1PL0 Copyright (c) Steve Scherf et al.
# Submitted via: ExactAudioCopy v0.95a3
# Normalized: r0:TDELIM( - )
#
DISCID=0812ad14
DTITLE=Various Artist - Best of Raf - 1
DYEAR=1900
DGENRE=Pop
TTITLE0=Petra - Als ik droom
TTITLE1=Neeka - Don't hold me back
TTITLE2=Ann Christy - De roos
TTITLE3=Sarah Connor - From Sarah with love
TTITLE4=Mama's Jasje - Het is over
TTITLE5=R.Kelly - If I could turn back the hands of time
TTITLE6=Noordkaap - Ik hou van U
TTITLE7=Arno - Lonesome Zorro
TTITLE8=Sanne - Land van ons twee
TTITLE9=Pitti Pollak - Poor,stupid and ugly
TTITLE10=Bart Peeters - Linda
TTITLE11=Sarah Connor - Skin on skin
TTITLE12=Dido - White flag
TTITLE13=Wendy van Wanten - Sla je arm om me heen
TTITLE14=Natalia Druyts - Without You
TTITLE15=Biezebeize - Scheetsebollekezoetse
TTITLE16=Georges Moustaki - Me Métèque
TTITLE17=Ingrid - Tu es foutu
TTITLE18=Lucille Ball - The French song
TTITLE19=Biezebeize - Mee mijne vlieger
EXTD=
EXTT0=
EXTT1=
EXTT2=
EXTT3=
EXTT4=
EXTT5=
EXTT6=
EXTT7=
EXTT8=
EXTT9=
EXTT10=
EXTT11=
EXTT12=
EXTT13=
EXTT14=
EXTT15=
EXTT16=
EXTT17=
EXTT18=
EXTT19=
PLAYORDER=
